<svg xmlns="http://www.w3.org/2000/svg" viewBox="0 0 409.6 332.87"><defs><style>.cls-1{fill:#5a5a5a;}</style></defs><title>Recurso 1</title><g id="Capa_2" data-name="Capa 2"><g id="Capa_1-2" data-name="Capa 1"><path class="cls-1" d="M409.6,39.4a167.73,167.73,0,0,1-48.26,13.24A84.29,84.29,0,0,0,398.28,6.15a168.46,168.46,0,0,1-53.36,20.39,84.1,84.1,0,0,0-143.19,76.64A238.55,238.55,0,0,1,28.52,15.38a84.12,84.12,0,0,0,26,112.19,83.55,83.55,0,0,1-38.06-10.51c0,.35,0,.71,0,1.06a84.09,84.09,0,0,0,67.41,82.4A84.12,84.12,0,0,1,45.91,202a84.13,84.13,0,0,0,78.5,58.36,168.58,168.58,0,0,1-104.36,36,167.9,167.9,0,0,1-20-1.18,237.8,237.8,0,0,0,128.82,37.76c154.57,0,239.09-128,239.09-239.1q0-5.46-.24-10.87A170.54,170.54,0,0,0,409.6,39.4Z"/></g></g></svg>